<?xml version="1.0" encoding="UTF-8"?>
<!DOCTYPE svg PUBLIC "-//W3C//DTD SVG 1.1//EN" "http://www.w3.org/Graphics/SVG/1.1/DTD/svg11.dtd">
<svg xmlns="http://www.w3.org/2000/svg" version="1.1" width="500px" height="500px" style="shape-rendering:geometricPrecision; text-rendering:geometricPrecision; image-rendering:optimizeQuality; fill-rule:evenodd; clip-rule:evenodd" xmlns:xlink="http://www.w3.org/1999/xlink">
<g><path style="opacity:0.004" fill="#000000" d="M 313.5,6.5 C 314.833,7.16667 314.833,7.16667 313.5,6.5 Z"/></g>
<g><path style="opacity:0.004" fill="#000000" d="M 299.5,34.5 C 300.833,35.1667 300.833,35.1667 299.5,34.5 Z"/></g>
<g><path style="opacity:0.004" fill="#000000" d="M 290.5,37.5 C 291.833,38.1667 291.833,38.1667 290.5,37.5 Z"/></g>
<g><path style="opacity:0.004" fill="#000000" d="M 396.5,43.5 C 397.833,44.1667 397.833,44.1667 396.5,43.5 Z"/></g>
<g><path style="opacity:0.004" fill="#000000" d="M 392.5,48.5 C 393.833,49.1667 393.833,49.1667 392.5,48.5 Z"/></g>
<g><path style="opacity:0.004" fill="#000000" d="M 208.5,49.5 C 209.833,50.1667 209.833,50.1667 208.5,49.5 Z"/></g>
<g><path style="opacity:0.004" fill="#000000" d="M 34.5,52.5 C 35.8333,53.1667 35.8333,53.1667 34.5,52.5 Z"/></g>
<g><path style="opacity:0.004" fill="#000000" d="M 278.5,54.5 C 279.833,55.1667 279.833,55.1667 278.5,54.5 Z"/></g>
<g><path style="opacity:0.004" fill="#000000" d="M 291.5,60.5 C 292.833,61.1667 292.833,61.1667 291.5,60.5 Z"/></g>
<g><path style="opacity:0.004" fill="#000000" d="M 291.5,65.5 C 292.833,66.1667 292.833,66.1667 291.5,65.5 Z"/></g>
<g><path style="opacity:0.004" fill="#000000" d="M 81.5,76.5 C 82.8333,77.1667 82.8333,77.1667 81.5,76.5 Z"/></g>
<g><path style="opacity:0.004" fill="#000000" d="M 291.5,88.5 C 292.833,89.1667 292.833,89.1667 291.5,88.5 Z"/></g>
<g><path style="opacity:0.004" fill="#000000" d="M 37.5,100.5 C 38.8333,101.167 38.8333,101.167 37.5,100.5 Z"/></g>
<g><path style="opacity:0.004" fill="#000000" d="M 192.5,101.5 C 193.833,102.167 193.833,102.167 192.5,101.5 Z"/></g>
<g><path style="opacity:0.004" fill="#000000" d="M 0.5,118.5 C 1.83333,119.167 1.83333,119.167 0.5,118.5 Z"/></g>
<g><path style="opacity:0.004" fill="#000000" d="M 51.5,126.5 C 52.8333,127.167 52.8333,127.167 51.5,126.5 Z"/></g>
<g><path style="opacity:0.004" fill="#000000" d="M 188.5,126.5 C 189.833,127.167 189.833,127.167 188.5,126.5 Z"/></g>
<g><path style="opacity:0.004" fill="#000000" d="M 305.5,133.5 C 306.833,134.167 306.833,134.167 305.5,133.5 Z"/></g>
<g><path style="opacity:0.004" fill="#000000" d="M 194.5,144.5 C 195.833,145.167 195.833,145.167 194.5,144.5 Z"/></g>
<g><path style="opacity:0.004" fill="#000000" d="M 362.5,150.5 C 363.833,151.167 363.833,151.167 362.5,150.5 Z"/></g>
<g><path style="opacity:0.004" fill="#000000" d="M 126.5,162.5 C 127.833,163.167 127.833,163.167 126.5,162.5 Z"/></g>
<g><path style="opacity:0.004" fill="#000000" d="M 175.5,162.5 C 176.833,163.167 176.833,163.167 175.5,162.5 Z"/></g>
<g><path style="opacity:0.004" fill="#000000" d="M 314.5,174.5 C 315.833,175.167 315.833,175.167 314.5,174.5 Z"/></g>
<g><path style="opacity:0.004" fill="#000000" d="M 242.5,184.5 C 243.833,185.167 243.833,185.167 242.5,184.5 Z"/></g>
<g><path style="opacity:0.004" fill="#000000" d="M 436.5,188.5 C 437.833,189.167 437.833,189.167 436.5,188.5 Z"/></g>
<g><path style="opacity:0.004" fill="#000000" d="M 277.5,197.5 C 278.833,198.167 278.833,198.167 277.5,197.5 Z"/></g>
<g><path style="opacity:0.545" fill="#1a4f6a" d="M 236.5,199.5 C 233.5,199.5 230.5,199.5 227.5,199.5C 230.5,196.833 233.5,196.833 236.5,199.5 Z"/></g>
<g><path style="opacity:1" fill="#30aaa6" d="M 227.5,199.5 C 230.5,199.5 233.5,199.5 236.5,199.5C 239.5,200.5 241.5,202.5 242.5,205.5C 237.042,200.576 230.709,199.243 223.5,201.5C 224.287,199.896 225.62,199.229 227.5,199.5 Z"/></g>
<g><path style="opacity:1" fill="#2b8f99" d="M 288.5,210.5 C 285.414,210.401 283.081,209.068 281.5,206.5C 275.883,201.521 269.216,199.521 261.5,200.5C 262.008,198.767 262.841,198.434 264,199.5C 265.599,197.964 267.433,197.464 269.5,198C 276.801,200.821 283.135,204.987 288.5,210.5 Z"/></g>
<g><path style="opacity:0.004" fill="#000000" d="M 290.5,204.5 C 291.833,205.167 291.833,205.167 290.5,204.5 Z"/></g>
<g><path style="opacity:1" fill="#1ffdc4" d="M 242.5,205.5 C 243.404,206.209 243.737,207.209 243.5,208.5C 243.663,212.707 243.329,216.874 242.5,221C 241.76,223.244 240.426,225.077 238.5,226.5C 238.833,227.167 239.167,227.833 239.5,228.5C 237.865,229.681 236.198,229.681 234.5,228.5C 233.534,230.396 233.201,232.396 233.5,234.5C 231.248,235.333 229.081,235.333 227,234.5C 226.51,235.793 226.343,237.127 226.5,238.5C 223.975,239.64 221.308,240.307 218.5,240.5C 218.5,241.5 218.5,242.5 218.5,243.5C 216.473,243.338 214.473,243.505 212.5,244C 213.308,244.308 213.975,244.808 214.5,245.5C 213.388,246.265 212.721,247.265 212.5,248.5C 206.645,252.593 200.978,256.927 195.5,261.5C 193.993,267.43 194.66,273.097 197.5,278.5C 196.395,277.4 195.062,276.733 193.5,276.5C 192.572,274.401 191.072,272.734 189,271.5C 188.51,270.207 188.343,268.873 188.5,267.5C 187.5,267.5 186.5,267.5 185.5,267.5C 185.258,263.521 184.258,259.854 182.5,256.5C 181.699,254.958 181.366,253.292 181.5,251.5C 181.716,247.941 181.382,244.441 180.5,241C 181.044,239.415 181.711,237.915 182.5,236.5C 184.975,235.313 185.975,233.313 185.5,230.5C 188.656,229.021 190.656,226.688 191.5,223.5C 193.484,223.617 195.15,222.95 196.5,221.5C 197.167,221.833 197.833,222.167 198.5,222.5C 199.696,222.154 199.696,221.654 198.5,221C 200.167,220.167 201.833,219.333 203.5,218.5C 204.696,218.846 204.696,219.346 203.5,220C 204.5,220.5 205.5,221 206.5,221.5C 206.676,219.328 206.843,216.995 207,214.5C 209.247,212.845 211.58,212.512 214,213.5C 215.341,208.578 218.508,205.578 223.5,204.5C 223.5,203.5 223.5,202.5 223.5,201.5C 230.709,199.243 237.042,200.576 242.5,205.5 Z"/></g>
<g><path style="opacity:1" fill="#1fe5b4" d="M 261.5,200.5 C 269.216,199.521 275.883,201.521 281.5,206.5C 281.751,208.17 282.418,209.67 283.5,211C 285.895,211.681 288.228,212.515 290.5,213.5C 291.809,216.443 293.809,218.776 296.5,220.5C 295.469,221.7 294.635,223.034 294,224.5C 293.333,223.167 292.667,223.167 292,224.5C 291.829,229.864 291.329,235.198 290.5,240.5C 290.167,240.333 289.833,240.167 289.5,240C 290.473,234.593 290.807,229.093 290.5,223.5C 289.5,223.5 288.5,223.5 287.5,223.5C 288.36,229.086 288.694,234.586 288.5,240C 287.5,240.833 286.5,241.667 285.5,242.5C 288.018,244.156 288.018,245.489 285.5,246.5C 284.221,245.032 282.554,244.365 280.5,244.5C 280.027,243.094 279.027,242.427 277.5,242.5C 275.553,236.854 271.553,234.187 265.5,234.5C 260.151,232.65 256.651,228.984 255,223.5C 254.196,217.431 254.529,211.431 256,205.5C 257.076,202.921 258.909,201.254 261.5,200.5 Z"/></g>
<g><path style="opacity:0.004" fill="#000000" d="M 142.5,211.5 C 143.833,212.167 143.833,212.167 142.5,211.5 Z"/></g>
<g><path style="opacity:1" fill="#2ee0c1" d="M 223.5,201.5 C 223.5,202.5 223.5,203.5 223.5,204.5C 218.508,205.578 215.341,208.578 214,213.5C 211.58,212.512 209.247,212.845 207,214.5C 206.843,216.995 206.676,219.328 206.5,221.5C 205.5,221 204.5,220.5 203.5,220C 204.696,219.346 204.696,218.846 203.5,218.5C 201.833,219.333 200.167,220.167 198.5,221C 199.696,221.654 199.696,222.154 198.5,222.5C 197.833,222.167 197.167,221.833 196.5,221.5C 195.15,222.95 193.484,223.617 191.5,223.5C 201.463,215.182 212.13,207.848 223.5,201.5 Z"/></g>
<g><path style="opacity:0.004" fill="#000000" d="M 316.5,213.5 C 317.833,214.167 317.833,214.167 316.5,213.5 Z"/></g>
<g><path style="opacity:1" fill="#2a828f" d="M 294.5,214.5 C 298.881,216.684 302.881,219.35 306.5,222.5C 303.111,221.369 299.778,220.036 296.5,218.5C 295.295,217.423 294.628,216.09 294.5,214.5 Z"/></g>
<g><path style="opacity:0.004" fill="#000000" d="M 410.5,219.5 C 411.833,220.167 411.833,220.167 410.5,219.5 Z"/></g>
<g><path style="opacity:1" fill="#2ca09d" d="M 191.5,223.5 C 190.656,226.688 188.656,229.021 185.5,230.5C 186.757,227.573 188.757,225.239 191.5,223.5 Z"/></g>
<g><path style="opacity:1" fill="#2d8c95" d="M 185.5,230.5 C 185.975,233.313 184.975,235.313 182.5,236.5C 182.062,236.565 181.728,236.399 181.5,236C 182.488,233.833 183.821,232 185.5,230.5 Z"/></g>
<g><path style="opacity:1" fill="#1bd1a3" d="M 281.5,206.5 C 283.081,209.068 285.414,210.401 288.5,210.5C 290.853,211.34 292.853,212.674 294.5,214.5C 294.628,216.09 295.295,217.423 296.5,218.5C 299.778,220.036 303.111,221.369 306.5,222.5C 307.5,222.833 308.167,223.5 308.5,224.5C 306.883,223.962 305.216,223.629 303.5,223.5C 305.11,228.665 304.777,233.665 302.5,238.5C 293.271,245.722 284.271,252.889 275.5,260C 274.207,260.49 272.873,260.657 271.5,260.5C 275.865,256.811 280.531,253.478 285.5,250.5C 286.686,249.295 286.686,247.961 285.5,246.5C 288.018,245.489 288.018,244.156 285.5,242.5C 286.5,241.667 287.5,240.833 288.5,240C 288.694,234.586 288.36,229.086 287.5,223.5C 288.5,223.5 289.5,223.5 290.5,223.5C 290.807,229.093 290.473,234.593 289.5,240C 289.833,240.167 290.167,240.333 290.5,240.5C 291.329,235.198 291.829,229.864 292,224.5C 292.667,223.167 293.333,223.167 294,224.5C 294.635,223.034 295.469,221.7 296.5,220.5C 293.809,218.776 291.809,216.443 290.5,213.5C 288.228,212.515 285.895,211.681 283.5,211C 282.418,209.67 281.751,208.17 281.5,206.5 Z"/></g>
<g><path style="opacity:1" fill="#2db7a9" d="M 265.5,234.5 C 271.553,234.187 275.553,236.854 277.5,242.5C 273.223,240.218 269.223,237.551 265.5,234.5 Z"/></g>
<g><path style="opacity:1" fill="#1efdc4" d="M 308.5,224.5 C 310.86,225.865 312.527,227.865 313.5,230.5C 313.562,233.753 314.396,236.753 316,239.5C 316.667,246.167 316.667,252.833 316,259.5C 314.908,261.131 314.075,262.798 313.5,264.5C 312.178,264.67 311.011,264.337 310,263.5C 310.207,265.751 310.373,268.085 310.5,270.5C 308.61,270.703 307.11,270.037 306,268.5C 305.607,270.199 306.107,271.699 307.5,273C 306.863,274.713 305.863,274.879 304.5,273.5C 303.571,274.689 303.238,276.022 303.5,277.5C 301.61,277.703 300.11,277.037 299,275.5C 297.312,276.325 297.145,277.325 298.5,278.5C 296.739,280.68 294.573,282.346 292,283.5C 290.637,281.216 289.137,281.049 287.5,283C 289.007,283.837 289.507,285.004 289,286.5C 287.556,288.155 285.722,288.822 283.5,288.5C 283.5,289.833 283.5,291.167 283.5,292.5C 283.167,292.5 282.833,292.5 282.5,292.5C 280.533,292.739 278.699,292.406 277,291.5C 275.731,292.905 275.231,294.571 275.5,296.5C 272.865,297.142 270.198,297.809 267.5,298.5C 264.824,298.163 262.157,297.83 259.5,297.5C 259.397,294.364 258.397,291.698 256.5,289.5C 256.5,289.167 256.5,288.833 256.5,288.5C 256.334,284.486 256.501,280.486 257,276.5C 257.853,274.875 258.853,274.542 260,275.5C 261.393,270.115 264.56,266.281 269.5,264C 270.823,263.184 271.489,262.017 271.5,260.5C 272.873,260.657 274.207,260.49 275.5,260C 284.271,252.889 293.271,245.722 302.5,238.5C 304.777,233.665 305.11,228.665 303.5,223.5C 305.216,223.629 306.883,223.962 308.5,224.5 Z"/></g>
<g><path style="opacity:1" fill="#31bab0" d="M 243.5,208.5 C 244.375,213.628 244.709,218.794 244.5,224C 242.621,227.888 239.955,231.221 236.5,234C 228.477,238.34 220.811,243.174 213.5,248.5C 213.167,248.5 212.833,248.5 212.5,248.5C 212.721,247.265 213.388,246.265 214.5,245.5C 213.975,244.808 213.308,244.308 212.5,244C 214.473,243.505 216.473,243.338 218.5,243.5C 218.5,242.5 218.5,241.5 218.5,240.5C 221.308,240.307 223.975,239.64 226.5,238.5C 226.343,237.127 226.51,235.793 227,234.5C 229.081,235.333 231.248,235.333 233.5,234.5C 233.201,232.396 233.534,230.396 234.5,228.5C 236.198,229.681 237.865,229.681 239.5,228.5C 239.167,227.833 238.833,227.167 238.5,226.5C 240.426,225.077 241.76,223.244 242.5,221C 243.329,216.874 243.663,212.707 243.5,208.5 Z"/></g>
<g><path style="opacity:0.424" fill="#1d5071" d="M 277.5,242.5 C 279.027,242.427 280.027,243.094 280.5,244.5C 278.973,244.573 277.973,243.906 277.5,242.5 Z"/></g>
<g><path style="opacity:0.004" fill="#000000" d="M 79.5,244.5 C 80.8333,245.167 80.8333,245.167 79.5,244.5 Z"/></g>
<g><path style="opacity:0.004" fill="#000000" d="M 167.5,245.5 C 168.833,246.167 168.833,246.167 167.5,245.5 Z"/></g>
<g><path style="opacity:1" fill="#2a7e8d" d="M 280.5,244.5 C 282.554,244.365 284.221,245.032 285.5,246.5C 286.686,247.961 286.686,249.295 285.5,250.5C 284.55,247.885 282.883,245.885 280.5,244.5 Z"/></g>
<g><path style="opacity:0.004" fill="#000000" d="M 406.5,246.5 C 407.833,247.167 407.833,247.167 406.5,246.5 Z"/></g>
<g><path style="opacity:0.027" fill="#0a2b54" d="M 212.5,248.5 C 212.833,248.5 213.167,248.5 213.5,248.5C 213.557,249.609 213.89,250.609 214.5,251.5C 212.952,251.179 212.285,250.179 212.5,248.5 Z"/></g>
<g><path style="opacity:0.004" fill="#000000" d="M 406.5,252.5 C 407.833,253.167 407.833,253.167 406.5,252.5 Z"/></g>
<g><path style="opacity:0.004" fill="#000000" d="M 103.5,253.5 C 104.833,254.167 104.833,254.167 103.5,253.5 Z"/></g>
<g><path style="opacity:1" fill="#1d6e7a" d="M 218.5,254.5 C 221.54,255.68 224.206,257.347 226.5,259.5C 223.085,258.805 220.418,257.138 218.5,254.5 Z"/></g>
<g><path style="opacity:0.537" fill="#114d5e" d="M 181.5,251.5 C 181.366,253.292 181.699,254.958 182.5,256.5C 182.5,257.5 182.5,258.5 182.5,259.5C 180.416,257.007 180.083,254.34 181.5,251.5 Z"/></g>
<g><path style="opacity:0.004" fill="#000000" d="M 100.5,261.5 C 101.833,262.167 101.833,262.167 100.5,261.5 Z"/></g>
<g><path style="opacity:1" fill="#2d9b9d" d="M 226.5,259.5 C 230.457,261.473 234.124,263.806 237.5,266.5C 232.227,266.38 228.56,264.047 226.5,259.5 Z"/></g>
<g><path style="opacity:0.004" fill="#000000" d="M 250.5,267.5 C 251.833,268.167 251.833,268.167 250.5,267.5 Z"/></g>
<g><path style="opacity:1" fill="#36bbb2" d="M 182.5,256.5 C 184.258,259.854 185.258,263.521 185.5,267.5C 186.5,267.5 187.5,267.5 188.5,267.5C 188.343,268.873 188.51,270.207 189,271.5C 191.072,272.734 192.572,274.401 193.5,276.5C 189.901,274.737 187.068,272.07 185,268.5C 183.451,265.688 182.618,262.688 182.5,259.5C 182.5,258.5 182.5,257.5 182.5,256.5 Z"/></g>
<g><path style="opacity:0.004" fill="#000000" d="M 383.5,268.5 C 384.833,269.167 384.833,269.167 383.5,268.5 Z"/></g>
<g><path style="opacity:1" fill="#1cd5a6" d="M 212.5,248.5 C 212.285,250.179 212.952,251.179 214.5,251.5C 216.23,252.026 217.564,253.026 218.5,254.5C 214.901,253.656 211.234,253.323 207.5,253.5C 209.011,256.537 210.344,259.704 211.5,263C 211.167,263.333 210.833,263.667 210.5,264C 211.5,264.833 212.5,265.667 213.5,266.5C 213.154,267.696 212.654,267.696 212,266.5C 211.517,267.448 211.351,268.448 211.5,269.5C 212.833,269.5 214.167,269.5 215.5,269.5C 215.67,270.822 215.337,271.989 214.5,273C 216.361,274.028 217.695,275.528 218.5,277.5C 216.45,280.907 215.117,284.574 214.5,288.5C 216.895,287.637 219.229,287.637 221.5,288.5C 220.167,289.167 218.833,289.833 217.5,290.5C 220.213,292.214 222.213,294.547 223.5,297.5C 218.473,294.655 213.806,291.321 209.5,287.5C 209.196,286.85 208.863,286.183 208.5,285.5C 209.167,285.167 209.833,284.833 210.5,284.5C 206.928,284.108 204.261,282.441 202.5,279.5C 200.955,278.548 199.288,278.215 197.5,278.5C 194.66,273.097 193.993,267.43 195.5,261.5C 200.978,256.927 206.645,252.593 212.5,248.5 Z"/></g>
<g><path style="opacity:1" fill="#31d3bc" d="M 271.5,260.5 C 271.489,262.017 270.823,263.184 269.5,264C 264.56,266.281 261.393,270.115 260,275.5C 258.853,274.542 257.853,274.875 257,276.5C 256.501,280.486 256.334,284.486 256.5,288.5C 255.662,288.158 255.328,287.492 255.5,286.5C 252.555,273.095 257.889,264.428 271.5,260.5 Z"/></g>
<g><path style="opacity:0.004" fill="#000000" d="M 41.5,271.5 C 42.8333,272.167 42.8333,272.167 41.5,271.5 Z"/></g>
<g><path style="opacity:1" fill="#2fd4bd" d="M 313.5,230.5 C 315.811,234.306 317.477,238.472 318.5,243C 317.724,249.463 317.224,255.963 317,262.5C 314.949,267.214 312.115,271.381 308.5,275C 300.563,281.443 292.23,287.276 283.5,292.5C 283.5,291.167 283.5,289.833 283.5,288.5C 285.722,288.822 287.556,288.155 289,286.5C 289.507,285.004 289.007,283.837 287.5,283C 289.137,281.049 290.637,281.216 292,283.5C 294.573,282.346 296.739,280.68 298.5,278.5C 297.145,277.325 297.312,276.325 299,275.5C 300.11,277.037 301.61,277.703 303.5,277.5C 303.238,276.022 303.571,274.689 304.5,273.5C 305.863,274.879 306.863,274.713 307.5,273C 306.107,271.699 305.607,270.199 306,268.5C 307.11,270.037 308.61,270.703 310.5,270.5C 310.373,268.085 310.207,265.751 310,263.5C 311.011,264.337 312.178,264.67 313.5,264.5C 314.075,262.798 314.908,261.131 316,259.5C 316.667,252.833 316.667,246.167 316,239.5C 314.396,236.753 313.562,233.753 313.5,230.5 Z"/></g>
<g><path style="opacity:0.004" fill="#000000" d="M 322.5,277.5 C 323.833,278.167 323.833,278.167 322.5,277.5 Z"/></g>
<g><path style="opacity:1" fill="#2aac9d" d="M 193.5,276.5 C 195.062,276.733 196.395,277.4 197.5,278.5C 199.288,278.215 200.955,278.548 202.5,279.5C 204.261,282.441 206.928,284.108 210.5,284.5C 209.833,284.833 209.167,285.167 208.5,285.5C 208.863,286.183 209.196,286.85 209.5,287.5C 203.811,284.324 198.477,280.658 193.5,276.5 Z"/></g>
<g><path style="opacity:0.004" fill="#000000" d="M 117.5,279.5 C 118.833,280.167 118.833,280.167 117.5,279.5 Z"/></g>
<g><path style="opacity:1" fill="#1ee8b4" d="M 218.5,254.5 C 220.418,257.138 223.085,258.805 226.5,259.5C 228.56,264.047 232.227,266.38 237.5,266.5C 239.341,267.402 240.674,268.736 241.5,270.5C 242.32,276.797 242.653,283.131 242.5,289.5C 242.5,290.5 242.5,291.5 242.5,292.5C 241.062,296.274 238.395,298.607 234.5,299.5C 230.616,299.576 226.95,298.91 223.5,297.5C 222.213,294.547 220.213,292.214 217.5,290.5C 218.833,289.833 220.167,289.167 221.5,288.5C 219.229,287.637 216.895,287.637 214.5,288.5C 215.117,284.574 216.45,280.907 218.5,277.5C 217.695,275.528 216.361,274.028 214.5,273C 215.337,271.989 215.67,270.822 215.5,269.5C 214.167,269.5 212.833,269.5 211.5,269.5C 211.351,268.448 211.517,267.448 212,266.5C 212.654,267.696 213.154,267.696 213.5,266.5C 212.5,265.667 211.5,264.833 210.5,264C 210.833,263.667 211.167,263.333 211.5,263C 210.344,259.704 209.011,256.537 207.5,253.5C 211.234,253.323 214.901,253.656 218.5,254.5 Z"/></g>
<g><path style="opacity:0.004" fill="#000000" d="M 395.5,279.5 C 396.833,280.167 396.833,280.167 395.5,279.5 Z"/></g>
<g><path style="opacity:0.043" fill="#0a2546" d="M 243.5,282.5 C 244.156,283.622 244.489,284.955 244.5,286.5C 244.639,288.883 243.972,290.883 242.5,292.5C 242.5,291.5 242.5,290.5 242.5,289.5C 243.468,287.393 243.802,285.059 243.5,282.5 Z"/></g>
<g><path style="opacity:0.745" fill="#269198" d="M 241.5,270.5 C 244.699,273.986 245.365,277.986 243.5,282.5C 243.802,285.059 243.468,287.393 242.5,289.5C 242.653,283.131 242.32,276.797 241.5,270.5 Z"/></g>
<g><path style="opacity:0.012" fill="#174c63" d="M 255.5,286.5 C 255.328,287.492 255.662,288.158 256.5,288.5C 256.5,288.833 256.5,289.167 256.5,289.5C 256.5,290.5 256.5,291.5 256.5,292.5C 254.539,290.68 254.206,288.68 255.5,286.5 Z"/></g>
<g><path style="opacity:1" fill="#33bbb9" d="M 256.5,289.5 C 258.397,291.698 259.397,294.364 259.5,297.5C 257.75,296.341 256.75,294.674 256.5,292.5C 256.5,291.5 256.5,290.5 256.5,289.5 Z"/></g>
<g><path style="opacity:1" fill="#30d0bb" d="M 282.5,292.5 C 279.613,296.052 275.947,298.385 271.5,299.5C 268.833,299.5 266.167,299.5 263.5,299.5C 261.847,299.34 260.514,298.674 259.5,297.5C 262.157,297.83 264.824,298.163 267.5,298.5C 270.198,297.809 272.865,297.142 275.5,296.5C 275.231,294.571 275.731,292.905 277,291.5C 278.699,292.406 280.533,292.739 282.5,292.5 Z"/></g>
<g><path style="opacity:0.553" fill="#256780" d="M 223.5,297.5 C 226.95,298.91 230.616,299.576 234.5,299.5C 233.626,300.525 232.459,301.192 231,301.5C 228.133,300.619 225.633,299.286 223.5,297.5 Z"/></g>
<g><path style="opacity:0.561" fill="#1c4d67" d="M 263.5,299.5 C 266.167,299.5 268.833,299.5 271.5,299.5C 268.833,302.167 266.167,302.167 263.5,299.5 Z"/></g>
<g><path style="opacity:0.004" fill="#000000" d="M 448.5,299.5 C 449.833,300.167 449.833,300.167 448.5,299.5 Z"/></g>
<g><path style="opacity:0.004" fill="#000000" d="M 133.5,306.5 C 134.833,307.167 134.833,307.167 133.5,306.5 Z"/></g>
<g><path style="opacity:0.004" fill="#000000" d="M 275.5,312.5 C 276.833,313.167 276.833,313.167 275.5,312.5 Z"/></g>
<g><path style="opacity:0.004" fill="#000000" d="M 253.5,325.5 C 254.833,326.167 254.833,326.167 253.5,325.5 Z"/></g>
<g><path style="opacity:0.004" fill="#000000" d="M 480.5,327.5 C 481.833,328.167 481.833,328.167 480.5,327.5 Z"/></g>
<g><path style="opacity:0.004" fill="#000000" d="M 196.5,328.5 C 197.833,329.167 197.833,329.167 196.5,328.5 Z"/></g>
<g><path style="opacity:0.004" fill="#000000" d="M 455.5,335.5 C 456.833,336.167 456.833,336.167 455.5,335.5 Z"/></g>
<g><path style="opacity:0.004" fill="#000000" d="M 173.5,341.5 C 174.833,342.167 174.833,342.167 173.5,341.5 Z"/></g>
<g><path style="opacity:0.004" fill="#000000" d="M 136.5,344.5 C 137.833,345.167 137.833,345.167 136.5,344.5 Z"/></g>
<g><path style="opacity:0.004" fill="#000000" d="M 138.5,348.5 C 139.833,349.167 139.833,349.167 138.5,348.5 Z"/></g>
<g><path style="opacity:0.004" fill="#000000" d="M 377.5,356.5 C 378.833,357.167 378.833,357.167 377.5,356.5 Z"/></g>
<g><path style="opacity:0.004" fill="#000000" d="M 62.5,361.5 C 63.8333,362.167 63.8333,362.167 62.5,361.5 Z"/></g>
<g><path style="opacity:0.004" fill="#000000" d="M 80.5,362.5 C 81.8333,363.167 81.8333,363.167 80.5,362.5 Z"/></g>
<g><path style="opacity:0.004" fill="#000000" d="M 485.5,369.5 C 486.833,370.167 486.833,370.167 485.5,369.5 Z"/></g>
<g><path style="opacity:0.004" fill="#000000" d="M 487.5,385.5 C 488.833,386.167 488.833,386.167 487.5,385.5 Z"/></g>
<g><path style="opacity:0.004" fill="#000000" d="M 72.5,388.5 C 73.8333,389.167 73.8333,389.167 72.5,388.5 Z"/></g>
<g><path style="opacity:0.004" fill="#000000" d="M 437.5,389.5 C 438.833,390.167 438.833,390.167 437.5,389.5 Z"/></g>
<g><path style="opacity:0.004" fill="#000000" d="M 447.5,392.5 C 448.833,393.167 448.833,393.167 447.5,392.5 Z"/></g>
<g><path style="opacity:0.004" fill="#000000" d="M 128.5,393.5 C 129.833,394.167 129.833,394.167 128.5,393.5 Z"/></g>
<g><path style="opacity:0.004" fill="#000000" d="M 465.5,407.5 C 466.833,408.167 466.833,408.167 465.5,407.5 Z"/></g>
<g><path style="opacity:0.004" fill="#000000" d="M 229.5,410.5 C 230.833,411.167 230.833,411.167 229.5,410.5 Z"/></g>
<g><path style="opacity:0.004" fill="#000000" d="M 12.5,411.5 C 13.8333,412.167 13.8333,412.167 12.5,411.5 Z"/></g>
<g><path style="opacity:0.004" fill="#000000" d="M 227.5,417.5 C 228.833,418.167 228.833,418.167 227.5,417.5 Z"/></g>
<g><path style="opacity:0.004" fill="#000000" d="M 165.5,420.5 C 166.833,421.167 166.833,421.167 165.5,420.5 Z"/></g>
<g><path style="opacity:0.004" fill="#000000" d="M 432.5,434.5 C 433.833,435.167 433.833,435.167 432.5,434.5 Z"/></g>
<g><path style="opacity:0.004" fill="#000000" d="M 493.5,440.5 C 494.833,441.167 494.833,441.167 493.5,440.5 Z"/></g>
<g><path style="opacity:0.004" fill="#000000" d="M 218.5,444.5 C 219.833,445.167 219.833,445.167 218.5,444.5 Z"/></g>
<g><path style="opacity:0.004" fill="#000000" d="M 364.5,456.5 C 365.833,457.167 365.833,457.167 364.5,456.5 Z"/></g>
<g><path style="opacity:0.004" fill="#000000" d="M 178.5,465.5 C 179.833,466.167 179.833,466.167 178.5,465.5 Z"/></g>
<g><path style="opacity:0.004" fill="#000000" d="M 320.5,465.5 C 321.833,466.167 321.833,466.167 320.5,465.5 Z"/></g>
<g><path style="opacity:0.004" fill="#000000" d="M 97.5,482.5 C 98.8333,483.167 98.8333,483.167 97.5,482.5 Z"/></g>
<g><path style="opacity:0.004" fill="#000000" d="M 178.5,485.5 C 179.833,486.167 179.833,486.167 178.5,485.5 Z"/></g>
<g><path style="opacity:0.004" fill="#000000" d="M 170.5,495.5 C 171.833,496.167 171.833,496.167 170.5,495.5 Z"/></g>
<g><path style="opacity:0.004" fill="#000000" d="M 336.5,495.5 C 337.833,496.167 337.833,496.167 336.5,495.5 Z"/></g>
<g><path style="opacity:0.004" fill="#000000" d="M 302.5,496.5 C 303.833,497.167 303.833,497.167 302.5,496.5 Z"/></g>
</svg>
